<svg xmlns="http://www.w3.org/2000/svg" viewBox="0 0 368 388" role="img" aria-label="Luỹ thừa của đơn vị ảo i"><title>Luỹ thừa của đơn vị ảo i</title><desc>Bốn giá trị 1, i, −1, −i nằm trên đường tròn đơn vị; mỗi lần nhân với i quay thêm 90 độ.</desc><style>@media (prefers-color-scheme: dark){
  :root{--ill-ink:#e5e9f0;--ill-axis:#9aa5b4;--ill-grid:#3a4656;--ill-muted:#9aa5b4}
}
.ill-bg{fill:var(--ill-bg,transparent)}
.ink{stroke:var(--ill-ink,#1f2933);fill:none;stroke-width:2;stroke-linecap:round;stroke-linejoin:round}
.ink-thin{stroke:var(--ill-ink,#1f2933);fill:none;stroke-width:1;opacity:.55}
.axis{stroke:var(--ill-axis,#6b7280);fill:none;stroke-width:1.5}
.grid{stroke:var(--ill-grid,#d1d5db);fill:none;stroke-width:1;opacity:.5}
.accent-a{stroke:var(--ill-a,#2563eb);fill:var(--ill-a,#2563eb)}
.accent-b{stroke:var(--ill-b,#dc2626);fill:var(--ill-b,#dc2626)}
.accent-c{stroke:var(--ill-c,#16a34a);fill:var(--ill-c,#16a34a)}
.accent-d{stroke:var(--ill-d,#d97706);fill:var(--ill-d,#d97706)}
.fill-a{fill:var(--ill-a,#2563eb);stroke:none;opacity:.2}
.fill-b{fill:var(--ill-b,#dc2626);stroke:none;opacity:.2}
.fill-c{fill:var(--ill-c,#16a34a);stroke:none;opacity:.2}
.curve{stroke:var(--ill-a,#2563eb);fill:none;stroke-width:2.5}
.lbl{fill:var(--ill-ink,#1f2933);font-family:'Cambria Math','STIX Two Math',Georgia,serif;font-size:15px;font-style:italic}
.lbl-sm{fill:var(--ill-muted,#6b7280);font-family:system-ui,Segoe UI,Roboto,sans-serif;font-size:12px;font-style:normal}</style><rect class="ill-bg" x="0" y="0" width="368" height="388"/><circle cx="184" cy="184" r="108" class="ink-thin"/><line x1="60" y1="184" x2="308" y2="184" class="axis" stroke-width="2.5"/><polygon points="308,184 301.938,187.5 301.938,180.5" class="axis" stroke="none" fill-opacity="1"/><line x1="184" y1="308" x2="184" y2="60" class="axis" stroke-width="2.5"/><polygon points="184,60 187.5,66.062 180.5,66.062" class="axis" stroke="none" fill-opacity="1"/><text x="316" y="170" text-anchor="end" class="lbl-sm">Re</text><text x="193" y="56" text-anchor="start" class="lbl-sm">Im</text><line x1="184" y1="184" x2="292" y2="184" class="accent-a" stroke-width="2.5"/><polygon points="292,184 285.072,188 285.072,180" class="accent-a" stroke="none" fill-opacity="1"/><circle cx="292" cy="184" r="3.6" class="accent-a"/><text x="314" y="188" text-anchor="start" class="lbl">1</text><polyline points="239.307,174.248 238.608,170.89 237.706,167.58 236.604,164.332 235.305,161.158 233.815,158.068 232.139,155.075 230.283,152.191 228.255,149.424 226.061,146.787 223.711,144.289 221.213,141.939 218.576,139.745 215.809,137.717 212.925,135.861 209.932,134.185 206.842,132.695 203.668,131.396 200.42,130.294 197.11,129.392 193.752,128.693" class="accent-d" fill="none" style="fill:none" stroke-width="2"/><text x="234.318" y="137.682" text-anchor="middle" class="lbl-sm">×i</text><line x1="184" y1="184" x2="184" y2="76" class="accent-a" stroke-width="2.5"/><polygon points="184,76 188,82.928 180,82.928" class="accent-a" stroke="none" fill-opacity="1"/><circle cx="184" cy="76" r="3.6" class="accent-a"/><text x="184" y="45" text-anchor="middle" class="lbl">i</text><polyline points="174.248,128.693 170.89,129.392 167.58,130.294 164.332,131.396 161.158,132.695 158.068,134.185 155.075,135.861 152.191,137.717 149.424,139.745 146.787,141.939 144.289,144.289 141.939,146.787 139.745,149.424 137.717,152.191 135.861,155.075 134.185,158.068 132.695,161.158 131.396,164.332 130.294,167.58 129.392,170.89 128.693,174.248" class="accent-d" fill="none" style="fill:none" stroke-width="2"/><text x="133.682" y="137.682" text-anchor="middle" class="lbl-sm">×i</text><line x1="184" y1="184" x2="76" y2="184" class="accent-a" stroke-width="2.5"/><polygon points="76,184 82.928,180 82.928,188" class="accent-a" stroke="none" fill-opacity="1"/><circle cx="76" cy="184" r="3.6" class="accent-a"/><text x="54" y="188" text-anchor="end" class="lbl">−1</text><polyline points="128.693,193.752 129.392,197.11 130.294,200.42 131.396,203.668 132.695,206.842 134.185,209.932 135.861,212.925 137.717,215.809 139.745,218.576 141.939,221.213 144.289,223.711 146.787,226.061 149.424,228.255 152.191,230.283 155.075,232.139 158.068,233.815 161.158,235.305 164.332,236.604 167.58,237.706 170.89,238.608 174.248,239.307" class="accent-d" fill="none" style="fill:none" stroke-width="2"/><text x="133.682" y="238.318" text-anchor="middle" class="lbl-sm">×i</text><line x1="184" y1="184" x2="184" y2="292" class="accent-a" stroke-width="2.5"/><polygon points="184,292 180,285.072 188,285.072" class="accent-a" stroke="none" fill-opacity="1"/><circle cx="184" cy="292" r="3.6" class="accent-a"/><text x="184" y="332" text-anchor="middle" class="lbl">−i</text><polyline points="193.752,239.307 197.11,238.608 200.42,237.706 203.668,236.604 206.842,235.305 209.932,233.815 212.925,232.139 215.809,230.283 218.576,228.255 221.213,226.061 223.711,223.711 226.061,221.213 228.255,218.576 230.283,215.809 232.139,212.925 233.815,209.932 235.305,206.842 236.604,203.668 237.706,200.42 238.608,197.11 239.307,193.752" class="accent-d" fill="none" style="fill:none" stroke-width="2"/><text x="234.318" y="238.318" text-anchor="middle" class="lbl-sm">×i</text><text x="184" y="359" text-anchor="middle" class="lbl-sm">Nhân với i là quay 90°, nên i⁴ᵏ = 1, i⁴ᵏ⁺¹ = i, i⁴ᵏ⁺²</text><text x="184" y="374" text-anchor="middle" class="lbl-sm">= −1, i⁴ᵏ⁺³ = −i</text></svg>