<svg xmlns="http://www.w3.org/2000/svg" viewBox="0 0 460 320" role="img" aria-label="Mặt phẳng trong không gian Oxyz"><title>Mặt phẳng trong không gian Oxyz</title><desc>Phương trình tổng quát mặt phẳng và khoảng cách trong Oxyz.</desc><style>@media (prefers-color-scheme: dark){
  :root{--ill-ink:#e5e9f0;--ill-axis:#9aa5b4;--ill-grid:#3a4656;--ill-muted:#9aa5b4}
}
.ill-bg{fill:var(--ill-bg,transparent)}
.ink{stroke:var(--ill-ink,#1f2933);fill:none;stroke-width:2;stroke-linecap:round;stroke-linejoin:round}
.ink-thin{stroke:var(--ill-ink,#1f2933);fill:none;stroke-width:1;opacity:.55}
.axis{stroke:var(--ill-axis,#6b7280);fill:none;stroke-width:1.5}
.grid{stroke:var(--ill-grid,#d1d5db);fill:none;stroke-width:1;opacity:.5}
.accent-a{stroke:var(--ill-a,#2563eb);fill:var(--ill-a,#2563eb)}
.accent-b{stroke:var(--ill-b,#dc2626);fill:var(--ill-b,#dc2626)}
.accent-c{stroke:var(--ill-c,#16a34a);fill:var(--ill-c,#16a34a)}
.accent-d{stroke:var(--ill-d,#d97706);fill:var(--ill-d,#d97706)}
.fill-a{fill:var(--ill-a,#2563eb);stroke:none;opacity:.2}
.fill-b{fill:var(--ill-b,#dc2626);stroke:none;opacity:.2}
.fill-c{fill:var(--ill-c,#16a34a);stroke:none;opacity:.2}
.curve{stroke:var(--ill-a,#2563eb);fill:none;stroke-width:2.5}
.lbl{fill:var(--ill-ink,#1f2933);font-family:'Cambria Math','STIX Two Math',Georgia,serif;font-size:15px;font-style:italic}
.lbl-sm{fill:var(--ill-muted,#6b7280);font-family:system-ui,Segoe UI,Roboto,sans-serif;font-size:12px;font-style:normal}</style><rect class="ill-bg" x="0" y="0" width="460" height="320"/><polygon points="60,260 320,260 400,180 140,180" class="fill-a"/><polyline points="60,260 320,260 400,180 140,180 60,260" class="ink" fill="none"/><polygon points="60,160 320,160 400,80 140,80" class="fill-a"/><polyline points="60,160 320,160 400,80 140,80 60,160" class="ink" fill="none"/><line x1="230" y1="215" x2="230" y2="115" class="accent-b" stroke-width="2"/><circle cx="230" cy="215" r="3" class="accent-a"/><circle cx="230" cy="115" r="3" class="accent-a"/><polyline points="230,207 238,207 238,215" class="ink-thin" fill="none"/><polyline points="230,123 238,123 238,115" class="ink-thin" fill="none"/><text x="75" y="250" text-anchor="start" class="lbl-sm">(P): Ax + By + Cz + D₁ = 0</text><text x="75" y="150" text-anchor="start" class="lbl-sm">(Q): Ax + By + Cz + D₂ = 0</text><text x="238" y="165" text-anchor="start" class="lbl-sm">d((P),(Q))</text><text x="445" y="35" text-anchor="end" class="lbl-sm" font-weight="bold">d((P),(Q)) = |D₁ - D₂| / √(A² + B² + C²)</text></svg>