<svg xmlns="http://www.w3.org/2000/svg" viewBox="0 0 440 310" role="img" aria-label="Vật trên bàn nối vật treo qua ròng rọc"><title>Vật trên bàn nối vật treo qua ròng rọc</title><desc>Vật trên mặt bàn nằm ngang nối qua ròng rọc với vật treo.</desc><style>@media (prefers-color-scheme: dark){
  :root{--ill-ink:#e5e9f0;--ill-axis:#9aa5b4;--ill-grid:#3a4656;--ill-muted:#9aa5b4}
}
.ill-bg{fill:var(--ill-bg,transparent)}
.ink{stroke:var(--ill-ink,#1f2933);fill:none;stroke-width:2;stroke-linecap:round;stroke-linejoin:round}
.ink-thin{stroke:var(--ill-ink,#1f2933);fill:none;stroke-width:1;opacity:.55}
.axis{stroke:var(--ill-axis,#6b7280);fill:none;stroke-width:1.5}
.grid{stroke:var(--ill-grid,#d1d5db);fill:none;stroke-width:1;opacity:.5}
.accent-a{stroke:var(--ill-a,#2563eb);fill:var(--ill-a,#2563eb)}
.accent-b{stroke:var(--ill-b,#dc2626);fill:var(--ill-b,#dc2626)}
.accent-c{stroke:var(--ill-c,#16a34a);fill:var(--ill-c,#16a34a)}
.accent-d{stroke:var(--ill-d,#d97706);fill:var(--ill-d,#d97706)}
.fill-a{fill:var(--ill-a,#2563eb);stroke:none;opacity:.2}
.fill-b{fill:var(--ill-b,#dc2626);stroke:none;opacity:.2}
.fill-c{fill:var(--ill-c,#16a34a);stroke:none;opacity:.2}
.curve{stroke:var(--ill-a,#2563eb);fill:none;stroke-width:2.5}
.lbl{fill:var(--ill-ink,#1f2933);font-family:'Cambria Math','STIX Two Math',Georgia,serif;font-size:15px;font-style:italic}
.lbl-sm{fill:var(--ill-muted,#6b7280);font-family:system-ui,Segoe UI,Roboto,sans-serif;font-size:12px;font-style:normal}</style><rect class="ill-bg" x="0" y="0" width="440" height="310"/><line x1="46" y1="148" x2="312" y2="148" class="ink"/><line x1="46" y1="149" x2="300" y2="149" class="ink"/><line x1="55" y1="149" x2="49.75" y2="156" class="ink-thin"/><line x1="73" y1="149" x2="67.75" y2="156" class="ink-thin"/><line x1="91" y1="149" x2="85.75" y2="156" class="ink-thin"/><line x1="109" y1="149" x2="103.75" y2="156" class="ink-thin"/><line x1="163" y1="149" x2="157.75" y2="156" class="ink-thin"/><line x1="181" y1="149" x2="175.75" y2="156" class="ink-thin"/><line x1="199" y1="149" x2="193.75" y2="156" class="ink-thin"/><line x1="217" y1="149" x2="211.75" y2="156" class="ink-thin"/><line x1="235" y1="149" x2="229.75" y2="156" class="ink-thin"/><line x1="253" y1="149" x2="247.75" y2="156" class="ink-thin"/><line x1="271" y1="149" x2="265.75" y2="156" class="ink-thin"/><line x1="289" y1="149" x2="283.75" y2="156" class="ink-thin"/><polygon points="114,101 178,101 178,147 114,147" class="fill-a"/><polyline points="114,101 178,101 178,147 114,147 114,101" class="ink" fill="none"/><text x="131.92" y="129" text-anchor="middle" class="lbl">m₁</text><line x1="312" y1="142" x2="312" y2="148" class="ink-thin"/><circle cx="312" cy="142" r="18" class="fill-b"/><circle cx="312" cy="142" r="18" class="ink"/><circle cx="312" cy="142" r="2.6" class="accent-b"/><line x1="178" y1="124" x2="312" y2="124" class="ink"/><path d="M 312 124 A 18 18 0 0 1 330 142" class="ink" style="fill:none;stroke-width:2"/><line x1="330" y1="142" x2="330" y2="214" class="ink"/><polygon points="301,214 359,214 359,258 301,258" class="fill-a"/><polyline points="301,214 359,214 359,258 301,258 301,214" class="ink" fill="none"/><text x="317.24" y="241" text-anchor="middle" class="lbl">m₂</text><line x1="178" y1="110" x2="228" y2="110" class="accent-c" stroke-width="2"/><polygon points="228,110 222.261,113.052 222.261,106.948" class="accent-c" stroke="none" fill-opacity="1"/><text x="232" y="114" text-anchor="start" class="lbl">T</text><line x1="146" y1="124" x2="146" y2="66" class="accent-c" stroke-width="2.5"/><polygon points="146,66 150,72.928 142,72.928" class="accent-c" stroke="none" fill-opacity="1"/><text x="153" y="66" text-anchor="start" class="lbl">N</text><line x1="146" y1="124" x2="146" y2="178" class="accent-b" stroke-width="2.5"/><polygon points="146,178 142,171.072 150,171.072" class="accent-b" stroke="none" fill-opacity="1"/><text x="153" y="178" text-anchor="start" class="lbl">P₁</text><line x1="296" y1="228" x2="296" y2="184" class="accent-c" stroke-width="2"/><polygon points="296,184 299.052,189.739 292.948,189.739" class="accent-c" stroke="none" fill-opacity="1"/><text x="288" y="206" text-anchor="end" class="lbl">T</text><line x1="330" y1="236" x2="330" y2="286" class="accent-b" stroke-width="2.5"/><polygon points="330,286 326,279.072 334,279.072" class="accent-b" stroke="none" fill-opacity="1"/><text x="337" y="286" text-anchor="start" class="lbl">P₂</text><line x1="114" y1="124" x2="66" y2="124" class="accent-d" stroke-width="2"/><polygon points="66,124 71.739,120.948 71.739,127.052" class="accent-d" stroke="none" fill-opacity="1"/><text x="62" y="119" text-anchor="end" class="lbl">F<tspan dy="4" font-size="10">ms</tspan></text></svg>